<?xml version="1.0" encoding="UTF-8"?>
<svg width="60px" height="60px" viewBox="0 0 60 60" version="1.1" xmlns="http://www.w3.org/2000/svg" xmlns:xlink="http://www.w3.org/1999/xlink">
    <!-- Generator: Sketch 54.1 (76490) - https://sketchapp.com -->
    <title>Bitmap</title>
    <desc>Created with Sketch.</desc>
    <defs>
        <circle id="path-1" cx="30" cy="30" r="30"></circle>
    </defs>
    <g id="Symbols" stroke="none" stroke-width="1" fill="none" fill-rule="evenodd">
        <g id="Hello-panel" transform="translate(-52.000000, -52.000000)">
            <g id="Hello">
                <g id="Bitmap" transform="translate(52.000000, 52.000000)">
                    <mask id="mask-2" fill="white">
                        <use xlink:href="#path-1"></use>
                    </mask>
                    <use id="Mask" fill="#FCB040" fill-rule="nonzero" xlink:href="#path-1"></use>
                    <g id="Group-11" mask="url(#mask-2)" fill-rule="nonzero">
                        <g transform="translate(0.000000, 5.000000)">
                            <path d="M52.798215,59.4558856 C52.1394619,63.0493474 50.9866439,70.2362709 41.6543079,67.3198382 C35.6157375,65.4449885 31.7181148,64.2992471 29.6869593,62.7368724 C28.5890375,61.9036059 27.9851804,60.9661811 27.9851804,59.6642022 C27.8204921,56.1228196 21.891714,25.2398798 22.0015062,23.7816635 C22.0564022,23.2608719 22.3308827,21.5422597 22.7151554,19.5632518 C23.3739085,15.96979 24.1973499,11.5430617 24.1973499,11.5430617 C24.1973499,11.5430617 24.8561031,2.8458426 31.6632187,3.00208007 C32.9258289,3.00208007 34.0786469,3.26247585 35.2314649,3.6791091 C35.341257,3.73118826 35.3961531,3.73118826 35.5059453,3.78326741 C35.5608414,3.78326741 35.6157375,3.83534657 35.6706336,3.83534657 C40.556386,5.81435451 44.069736,10.4493994 45.5519306,15.2406818 C47.4183978,21.2818639 45.2774501,40.9157059 47.8575665,45.6549091 C50.9866439,51.591933 53.7863447,54.0396533 52.798215,59.4558856 Z" id="Path" fill="#3F3F3F"></path>
                            <path d="M45.2437297,68 L44.7816587,67.7918474 C45.089706,67.0633131 45.5004359,66.2307025 45.9111658,65.3460538 C47.8621326,61.3911535 50.2751704,56.4995663 46.6812842,52.7528187 C43.2414217,49.1101474 43.1387392,39.0667823 42.9847155,30.2202949 C42.9333743,26.9418907 42.8820331,23.819601 42.6766682,21.3217693 C41.752526,10.3417173 34.1026825,8.52038161 34,8.52038161 L34.1026825,8 C34.2053649,8 42.2145971,9.92541197 43.1900805,21.2697311 C43.3954454,23.7675629 43.4467866,26.8898526 43.4981279,30.1682567 C43.6008103,38.962706 43.7034928,48.9019948 47.0406728,52.3885516 C50.839924,56.39549 48.2728624,61.7033825 46.3732368,65.6062446 C45.962507,66.4388552 45.5517771,67.2714657 45.2437297,68 Z" id="Path" fill="#0C0C0C"></path>
                            <path d="M47.1510054,53 C47.1510054,53 66.1195238,82.4022504 66.9602337,86.045007 C67.8009437,89.6877637 55.0326612,90 55.0326612,90 L43,79.07173 L47.1510054,53 Z" id="Path" fill="#EFEAEA"></path>
                            <path d="M42.0670094,48.9890057 C46.2607549,23.4843604 35.4000293,10.0279218 27.7114959,15.0349687 C20.0229625,20.0420156 22.2273672,46.9548929 22.496197,47.5807738 C22.7650268,48.2066546 34.1096461,61.5066231 35.2924974,60.9850557 C36.4753487,60.515645 41.4755837,52.5878207 42.0670094,48.9890057 Z" id="Path" fill="#0C0C0C"></path>
                            <path d="M32.4773524,56.942128 C32.4235449,58.2517445 31.455011,60.975747 29.6793655,63.6997494 C26.6123414,68.3619844 20.693523,74.8576825 12.8376368,72.5003727 C8.37161927,71.1383715 5.35840264,69.4620623 3.52894968,67.4190605 C3.36752736,67.2095218 3.20610504,67.0523678 3.04468272,66.8428292 C1.59188184,65.009366 1,62.8615948 1,60.4519004 C1,60.1375924 1,59.7708998 1,59.4565918 C1,59.0898991 1.05380744,58.6708218 1.10761488,58.3041292 C1.75330416,52.3322777 8.74827135,49.0844286 11.3848359,43.3221158 C13.6985558,38.2408035 10.7929541,23.730252 14.1828228,13.0961656 C16.1198906,7.01954476 21.4468272,0.157153987 28.6032167,0 L28.6032167,0 C29.0336762,0 29.4641357,0 29.8407878,0.0523846624 C31.6702408,0.314307974 33.0154268,1.20484723 33.9839607,2.30492514 C34.0915756,2.46207913 34.2529979,2.61923312 34.3606128,2.77638711 C34.6834574,3.24784907 35.006302,3.71931103 35.2215318,4.19077299 C35.2753392,4.24315765 35.2753392,4.34792698 35.3291467,4.4526963 C35.3291467,4.50508096 35.3829541,4.55746563 35.3829541,4.60985029 C33.9839607,5.91946685 32.9078119,7.49100672 32.31593,9.27208524 C32.2083152,9.58639321 32.1545077,9.84831652 32.1007003,10.1102398 C31.8316631,11.9960877 32.9616193,13.7247815 34.5758425,14.8772441 C35.5981839,15.6106294 36.7819476,16.134476 37.9657112,16.448784 C38.3423633,18.5441705 35.490569,20.639557 35.5443764,21.2157883 C35.7596062,22.5777895 32.6387747,53.3799709 32.4773524,56.942128 Z" id="Path" fill="#3F3F3F"></path>
                            <path d="M23.9575549,32.8714101 C26.2393231,41.7944068 23.0241042,49.6772996 21.0016278,50.9911151 C20.8460527,51.1005997 31.8918854,50.2247227 32.7216193,46.8854418 C34.9515292,38.0171874 23.0241042,29.148933 23.9575549,32.8714101 Z" id="Path" fill="#0C0C0C"></path>
                            <path d="M27.2689076,37.6615865 C27.2689076,37.6615865 28.5994398,48.9927826 22,50 L41,50 C41,50 33.6022409,48.1870086 36.3165266,36.8558125 C36.3165266,36.9061734 30.3557423,34.4384907 27.2689076,37.6615865 Z" id="Path" fill="#FFCCB6"></path>
                            <path d="M47.1963858,96.425 L17.9345593,97 C17.9345593,97 17.771692,96.1636364 17.5002465,94.7 C16.0344407,86.8068182 11.3655779,60.6704545 13.5914311,55.3909091 C13.5914311,55.3909091 13.5914311,55.3909091 13.5914311,55.3909091 C13.7000093,55.0772727 13.9171657,54.8159091 14.080033,54.6590909 C14.080033,54.6590909 14.1343221,54.6068182 14.1343221,54.6068182 C14.2971894,54.5022727 14.4600567,54.3454545 14.622924,54.2409091 C18.314583,51.5227273 21.6805074,51 21.6805074,51 L41.0617172,51 C41.0617172,51 44.5362198,52.15 46.8163621,53.1954545 C47.7392768,53.6136364 49.4765281,61.4022727 52.6252961,70.55 C54.7425711,76.7181818 47.1963858,96.425 47.1963858,96.425 Z" id="Path" fill="#FFFFFF"></path>
                            <path d="M23.9783697,50.1228083 L33.6057782,62.1588696 L39.9339063,50.7943482 C39.9339063,50.7943482 45.3966493,52.0341142 45.9916016,53.377194 C46.3702075,54.2037046 33.8221245,65 33.8221245,65 L15,52.9122817 C15.1081731,52.9122817 18.1911073,49.2962976 23.9783697,50.1228083 Z" id="Path" fill="#F4E6E6"></path>
                            <polygon id="Path" fill="#FFCCB6" points="23 49.6787149 34.7507418 62 41 50.5140562 33.6824926 49"></polygon>
                            <path d="M27,37.6829354 C27,37.6829354 34.7068966,38.4184043 36,37 C36,37 35.4310345,38.4709378 35.1206897,38.9437393 C34.6034483,39.7317417 32.3275862,40.0469426 31.0862069,39.9944091 C28.4482759,39.8368086 27,37.6829354 27,37.6829354 Z" id="Path" fill="#333232"></path>
                            <path d="M42,24.5 C42,32.5035842 37.875,39 31.875,39 C25.875,39 21,32.5035842 21,24.5 C21,16.4964158 25.875,10 31.875,10 C37.875,10 42,16.4964158 42,24.5 Z" id="Path" fill="#FFCCB6"></path>
                            <path d="M32.5533667,30 C32.4989971,30 32.4989971,30 32.4446274,30 C32.3358882,29.9481481 32.2815185,29.8444444 32.3358882,29.7407407 C32.4989971,29.3777778 33.6407593,28.4962963 34.2931948,28.0814815 C33.8582378,27.8740741 33.4232808,27.5111111 33.0426934,26.9407407 C32.3358882,26.0074074 31.7378223,24.5037037 32.1184097,23.1555556 C32.1727793,23.0518519 32.2815185,23 32.3902578,23 C32.4989971,23.0518519 32.5533667,23.1555556 32.5533667,23.2592593 C32.2271489,24.4518519 32.7708452,25.8 33.4232808,26.6814815 C33.9126074,27.3037037 34.4563037,27.7703704 34.8368911,27.7703704 C34.9456304,27.7703704 35,27.8222222 35,27.9259259 C35,28.0296296 35,28.0814815 34.9456304,28.1333333 C34.1844556,28.6518519 32.9339541,29.5851852 32.8252148,29.8962963 C32.7164756,29.9481481 32.6077363,30 32.5533667,30 Z" id="Path" fill="#935D4A"></path>
                            <path d="M32.3813422,34 C31.1999405,34 30.3020752,33.5797184 30.1130509,33.4396245 C30.0185388,33.3929266 29.9712827,33.2995307 30.0185388,33.2061348 C30.0657949,33.1127388 30.160307,33.0660409 30.2548191,33.0660409 C30.3020752,33.0660409 30.3493313,33.1127388 30.3493313,33.1594368 C30.5856116,33.3462286 32.6176225,34.2801877 34.7441456,33.0193429 C34.8386577,32.972645 34.9331698,33.0193429 34.9804259,33.0660409 C35.027682,33.1594368 34.9804259,33.2528327 34.9331698,33.2995307 C33.9880485,33.8132082 33.1374393,34 32.3813422,34 Z" id="Path" fill="#935D4A"></path>
                            <path d="M22.0684565,20.9963988 C21.6866875,21.0645485 22.8865328,20.1445265 26.0497613,20.0082269 C26.9769144,19.974152 28.5585287,20.0423018 28.8857592,20.280826 C29.1584513,20.4852754 29.0493745,20.9963988 27.3586834,20.8941741 C26.1588381,20.8260243 23.9773012,20.6897247 22.0684565,20.9963988 Z" id="Path" fill="#3F3F3F"></path>
                            <path d="M26.0165271,23.9053179 C25.9421467,24.4745746 26.1280978,24.9489552 26.3884293,24.9963932 C26.6487609,25.0438313 26.9462827,24.6168888 26.9834729,24.0950701 C27.0578533,23.5258134 26.8719022,23.0514329 26.6115707,23.0039948 C26.3512391,22.9565568 26.0909075,23.3360612 26.0165271,23.9053179 Z" id="Path" fill="#2B2B2B"></path>
                            <polygon id="Path" fill="#2B2B2B" points="24 23.2222222 27 23 26.95 24 24 23.5555556"></polygon>
                            <path d="M40.917855,21.9941906 C41.3335534,22.1157265 40.2052292,20.2926885 36.7608709,20.0496168 C35.7513176,19.9888489 34.8605353,19.9280809 34.3260659,20.2319206 C33.4946691,20.778832 34.3854514,21.8118868 35.5137756,21.629583 C36.7608709,21.4472792 38.839363,21.4472792 40.917855,21.9941906 Z" id="Path" fill="#3F3F3F"></path>
                            <path d="M37.9951469,23.930478 C38.0332351,24.4866541 37.842794,24.9501342 37.5761764,24.9964822 C37.3095589,25.0428303 37.0429413,24.6256982 37.0048531,24.069522 C36.9667649,23.5133459 37.157206,23.0498658 37.4238236,23.0035178 C37.6904411,22.9571697 37.9570587,23.3743018 37.9951469,23.930478 Z" id="Path" fill="#2B2B2B"></path>
                            <polygon id="Path" fill="#2B2B2B" points="39 23.6111111 36.05 23 36 24 38.95 23.8888889"></polygon>
                            <path d="M31.9553944,35 C31.4427438,35 31.0699069,34.52 31.0699069,34.52 C30.9766977,34.44 30.9766977,34.2 31.0699069,34.12 C31.1165115,33.96 31.2563253,33.96 31.3029299,34.12 L31.3029299,34.12 C31.3029299,34.12 31.8621852,34.92 32.7476727,34.12 C32.8408819,34.04 32.9340911,34.12 32.9806957,34.2 C33.0273003,34.36 32.9806957,34.52 32.9340911,34.6 C32.5612543,34.84 32.235022,35 31.9553944,35 Z" id="Path" fill="#DDA794"></path>
                            <path d="M28.5,27 C27.0648148,27 26,26.5833333 26,26 C26,25.4166667 27.0648148,25 28.5,25 C29.9351852,25 31,25.4166667 31,26 C31,26.5833333 29.9351852,27 28.5,27 Z M28.5,25.2916667 C27.25,25.2916667 26.3240741,25.6666667 26.3240741,26 C26.3240741,26.3333333 27.25,26.7083333 28.5,26.7083333 C29.75,26.7083333 30.6759259,26.3333333 30.6759259,26 C30.6759259,25.6666667 29.75,25.2916667 28.5,25.2916667 Z" id="Shape" fill="#FCFCFC"></path>
                            <path d="M36.5,27 C35.0909091,27 34,26.5833333 34,26 C34,25.4166667 35.0909091,25 36.5,25 C37.9090909,25 39,25.4166667 39,26 C39,26.5833333 37.9545455,27 36.5,27 Z M36.5,25.2916667 C35.2727273,25.2916667 34.3636364,25.6666667 34.3636364,26 C34.3636364,26.3333333 35.2727273,26.7083333 36.5,26.7083333 C37.7272727,26.7083333 38.6363636,26.3333333 38.6363636,26 C38.6363636,25.6666667 37.7272727,25.2916667 36.5,25.2916667 Z" id="Shape" fill="#FCFCFC"></path>
                            <path d="M31.2857143,26 L31,25.7316825 C31,25.7316825 32.3333333,24.1217777 34,25.678019 L33.7619048,26 C32.3809524,24.6584127 31.3333333,25.9463365 31.2857143,26 Z" id="Path" fill="#FCFCFC"></path>
                            <path d="M35,5.30701754 L32.6041667,10 L32.5,10 L31.7708333,10 L30,9.95614035 L30.5729167,9.34210526 L34.6354167,5.13157895 L34.7395833,5 C34.7916667,5.04385965 34.7916667,5.13157895 34.84375,5.21929825 C34.8958333,5.26315789 34.9479167,5.30701754 35,5.30701754 Z" id="Path" fill="#3F3F3F"></path>
                            <path d="M41.3931865,24.2603998 C41.4910786,24.0389232 42.6657839,23.6845605 42.9105141,24.5704671 C43.4978668,26.9624149 41.0016181,29 41.0016181,29 C41.0016181,29 40.952672,25.1020111 41.3931865,24.2603998 Z" id="Path" fill="#FFCCB6"></path>
                            <path d="M42.5194805,27 C42.5194805,27 42.4545455,27 42.4545455,27 C42.3896104,26.9459459 42.3246753,26.8918919 42.3896104,26.8378378 C42.8441558,25.972973 42.7792208,25.5945946 42.6493506,25.4324324 C42.5194805,25.2702703 42.2597403,25.2702703 42.1948052,25.2702703 C42.1298701,25.2702703 42,25.2162162 42,25.1621622 C42,25.1081081 42.0649351,25 42.1298701,25 C42.1298701,25 42.5844156,25 42.8441558,25.2702703 C43.1038961,25.5945946 43.038961,26.1891892 42.6493506,26.9459459 C42.6493506,26.9459459 42.5844156,27 42.5194805,27 Z" id="Path" fill="#DDA794"></path>
                            <path d="M41.1354137,28 C41.1354137,28 41.0793235,28 41.0793235,28 C41.0232333,27.9635226 40.9671431,27.9270451 41.0232333,27.8905677 L41.7524059,27.0515869 C41.8084961,27.0151094 41.8645863,26.978632 41.9206765,27.0151094 C41.9767667,27.0515869 42.0328569,27.0880643 41.9767667,27.1245417 L41.2475941,27.9635226 C41.2475941,27.9635226 41.1915039,28 41.1354137,28 Z" id="Path" fill="#DDA794"></path>
                            <path d="M33,10.2543689 C23,18.4854369 23.8205128,34.5281553 23.9230769,35 L21,29.023301 C21,29.023301 26.4358974,8 26.5897436,8 C26.6923077,8.10485437 28.3846154,9.57281553 30.1794872,10.2019417 L30.2307692,10.2543689 L31.974359,10.3067961 L32.6923077,10.3067961 C32.8461538,10.2543689 33,10.2543689 33,10.2543689 Z" id="Path" fill="#0C0C0C"></path>
                            <path d="M31.9971959,6.46748854 C31.9971959,6.46748854 22.9714119,19.5614101 22.5908065,27.5246522 C22.2645733,34.0983352 25.1462996,37.2515653 22.4276899,36.9843424 C20.0896856,36.7705641 14,23.4094197 14,23.4094197 C14,23.4094197 19.1653583,7.7501584 19.4372193,7.64326925 C19.7090803,7.53638009 32.2146847,4.97104036 31.9971959,6.46748854 Z" id="Path" fill="#3F3F3F"></path>
                            <path d="M30,0.074727967 C24.4813433,2.18835406 18.9085821,6.41560624 16.7985075,14.7644293 C15.4458955,20.0484945 15.8246269,25.2797191 16.2574627,30.3524217 C16.8526119,37.8557943 17.3936567,44.9892824 11.4962687,50.3261882 C10.5223881,51.1716387 9.65671642,51.9642485 8.84514925,52.7568583 C5.00373134,56.1915006 2.4608209,58.5164893 1,61 C1,60.6829561 1,60.3130715 1,59.9960276 C2.56902985,57.6710389 5.00373134,55.4517315 8.46641791,52.3869737 C9.27798507,51.6472046 10.1977612,50.8545948 11.1175373,49.9563037 C16.7985075,44.7250791 16.3115672,38.0671569 15.7164179,30.4052624 C15.3376866,25.3325597 14.9048507,20.0484945 16.2574627,14.658748 C18.3134328,6.57412819 23.4533582,2.29403536 28.755597,0.0218873148 L28.755597,0.0218873148 C29.1884328,-0.0309533374 29.6212687,0.0218873148 30,0.074727967 Z" id="Path" fill="#0C0C0C"></path>
                            <path d="M19.7250859,17.5582329 C18.3402062,22.8835341 18.9261168,27.8955823 19.5120275,32.751004 C20.3109966,39.5903614 21.056701,46.064257 15.3041237,51.2851406 C14.3453608,52.1204819 13.4931271,52.9036145 12.6941581,53.686747 C6.56872852,59.2208835 3.79896907,61.7269076 3.47938144,67 C3.31958763,66.7911647 3.15979381,66.6345382 3,66.4257028 C3.47938144,61.2570281 6.46219931,58.5943775 12.3213058,53.2690763 C13.1202749,52.5381526 14.0257732,51.7550201 14.9312715,50.8674699 C20.4707904,45.8032129 19.7783505,39.746988 18.9793814,32.751004 C18.3934708,27.8433735 17.8608247,22.8313253 19.2457045,17.3493976 C21.9089347,6.85542169 27.661512,3.25301205 33.6271478,2 C33.733677,2.15662651 33.8934708,2.31325301 34,2.46987952 C28.0876289,3.7751004 22.3883162,7.22088353 19.7250859,17.5582329 Z" id="Path" fill="#0C0C0C"></path>
                        </g>
                    </g>
                </g>
            </g>
        </g>
    </g>
</svg>